<svg width="44" height="44" viewBox="0 0 44 44" fill="none" xmlns="http://www.w3.org/2000/svg">
<g clip-path="url(#clip0_1402_1362)">
<path d="M22 40.3333L29.3333 33L24.75 12.8333L26.5705 7.97683C26.6744 7.69952 26.7096 7.40116 26.6731 7.10726C26.6366 6.81337 26.5294 6.5327 26.3608 6.28926C26.1921 6.04582 25.967 5.84687 25.7047 5.70942C25.4423 5.57197 25.1506 5.50011 24.8545 5.5H19.1455C18.8493 5.50011 18.5576 5.57197 18.2953 5.70942C18.0329 5.84687 17.8078 6.04582 17.6392 6.28926C17.4705 6.5327 17.3633 6.81337 17.3268 7.10726C17.2903 7.40116 17.3255 7.69952 17.4295 7.97683L19.25 12.8333L14.6666 33L22 40.3333Z" stroke="#E6D2B5" stroke-width="1.5" stroke-linecap="round" stroke-linejoin="round"/>
<path d="M19.25 12.8333H24.75L33.9167 22.9166" stroke="#E6D2B5" stroke-width="1.5" stroke-linecap="round" stroke-linejoin="round"/>
</g>
<defs>
<clipPath id="clip0_1402_1362">
<rect width="44" height="44" fill="white"/>
</clipPath>
</defs>
</svg>
