<svg width="44" height="44" viewBox="0 0 44 44" fill="none" xmlns="http://www.w3.org/2000/svg">
<g clip-path="url(#clip0_1402_1369)">
<path d="M20.1666 22C20.1666 22.4862 20.3598 22.9525 20.7036 23.2963C21.0474 23.6401 21.5137 23.8333 22 23.8333C22.4862 23.8333 22.9525 23.6401 23.2963 23.2963C23.6401 22.9525 23.8333 22.4862 23.8333 22C23.8333 21.5137 23.6401 21.0474 23.2963 20.7036C22.9525 20.3598 22.4862 20.1666 22 20.1666C21.5137 20.1666 21.0474 20.3598 20.7036 20.7036C20.3598 21.0474 20.1666 21.5137 20.1666 22Z" stroke="#E6D2B5" stroke-width="1.5" stroke-linecap="round" stroke-linejoin="round"/>
<path d="M12.8334 22C12.8334 24.4312 13.7991 26.7628 15.5182 28.4819C17.2373 30.2009 19.5689 31.1667 22 31.1667C24.4312 31.1667 26.7628 30.2009 28.4819 28.4819C30.2009 26.7628 31.1667 24.4312 31.1667 22C31.1667 19.5689 30.2009 17.2373 28.4819 15.5182C26.7628 13.7991 24.4312 12.8334 22 12.8334C19.5689 12.8334 17.2373 13.7991 15.5182 15.5182C13.7991 17.2373 12.8334 19.5689 12.8334 22Z" stroke="#E6D2B5" stroke-width="1.5" stroke-linecap="round" stroke-linejoin="round"/>
<path d="M5.5 22C5.5 24.1668 5.92678 26.3124 6.75599 28.3143C7.58519 30.3161 8.80057 32.1351 10.3327 33.6673C11.8649 35.1994 13.6839 36.4148 15.6857 37.244C17.6876 38.0732 19.8332 38.5 22 38.5C24.1668 38.5 26.3124 38.0732 28.3143 37.244C30.3161 36.4148 32.1351 35.1994 33.6673 33.6673C35.1994 32.1351 36.4148 30.3161 37.244 28.3143C38.0732 26.3124 38.5 24.1668 38.5 22C38.5 19.8332 38.0732 17.6876 37.244 15.6857C36.4148 13.6839 35.1994 11.8649 33.6673 10.3327C32.1351 8.80057 30.3161 7.58519 28.3143 6.75599C26.3124 5.92679 24.1668 5.5 22 5.5C19.8332 5.5 17.6876 5.92679 15.6857 6.75599C13.6839 7.58519 11.8649 8.80057 10.3327 10.3327C8.80057 11.8649 7.58519 13.6839 6.75599 15.6857C5.92678 17.6876 5.5 19.8332 5.5 22Z" stroke="#E6D2B5" stroke-width="1.5" stroke-linecap="round" stroke-linejoin="round"/>
</g>
<defs>
<clipPath id="clip0_1402_1369">
<rect width="44" height="44" fill="white"/>
</clipPath>
</defs>
</svg>
